<svg xmlns="http://www.w3.org/2000/svg" viewBox="0 0 348 81" width="348" height="81">
	<path id="Layer" fill-rule="evenodd" class="shp0" fill="#1e0478" d="M69.34 8.6C69.34 8.6 69.29 50.98 69.22 51.45C68.79 54.47 67.23 57.44 64.83 59.84C62.43 62.24 59.46 63.8 56.44 64.23C55.88 64.31 55.32 64.35 54.78 64.35C52.26 64.35 50.02 63.48 48.37 61.83C46.37 59.83 45.52 56.96 45.98 53.76C46.41 50.75 47.96 47.77 50.36 45.37C52.76 42.97 55.74 41.42 58.75 40.99C61.42 40.61 63.85 41.14 65.75 42.48L65.75 18.91L26.48 33.38C26.48 33.38 26.48 65.81 26.48 65.83C26.47 66.29 26.43 66.76 26.36 67.24C25.93 70.25 24.37 73.23 21.98 75.63C19.58 78.03 16.6 79.58 13.59 80.01C13.02 80.1 12.47 80.14 11.93 80.14C9.4 80.14 7.17 79.27 5.52 77.62C3.51 75.62 2.66 72.75 3.12 69.55C3.55 66.54 5.11 63.56 7.51 61.16C9.9 58.76 12.88 57.2 15.89 56.77C18.56 56.39 21 56.92 22.89 58.27L22.89 20.84C22.89 18.09 24.63 15.61 27.21 14.65L60.46 2.41C62.48 1.66 64.74 1.95 66.51 3.18C68.28 4.42 69.34 6.44 69.34 8.6ZM65.75 49.84L65.75 49.79C65.75 48.22 65.24 46.87 64.29 45.92C63.32 44.96 61.97 44.45 60.39 44.45C60.03 44.45 59.65 44.48 59.26 44.54C57.01 44.86 54.75 46.05 52.9 47.91C51.04 49.76 49.85 52.02 49.53 54.27C49.23 56.32 49.72 58.11 50.91 59.3C52.09 60.48 53.88 60.97 55.94 60.68C58.18 60.36 60.44 59.16 62.29 57.31C64.15 55.45 65.35 53.2 65.67 50.95C65.72 50.57 65.75 50.2 65.75 49.84ZM65.75 15.09L65.75 8.6C65.75 7.6 65.28 6.7 64.46 6.13C63.64 5.55 62.64 5.43 61.7 5.77L28.45 18.02C27.27 18.45 26.48 19.59 26.48 20.84L26.48 29.56L65.75 15.09ZM22.89 65.63L22.89 65.58C22.89 64.01 22.39 62.66 21.43 61.7C20.47 60.74 19.11 60.24 17.54 60.24C17.17 60.24 16.79 60.27 16.4 60.32C14.15 60.64 11.89 61.84 10.04 63.69C8.19 65.55 6.99 67.81 6.67 70.05C6.38 72.11 6.87 73.9 8.05 75.08C9.24 76.27 11.02 76.76 13.08 76.46C15.33 76.14 17.59 74.95 19.44 73.09C21.29 71.24 22.49 68.98 22.81 66.73C22.87 66.36 22.89 65.99 22.89 65.63Z" />
	<path id="Layer" class="shp1" fill="#94e7ef" d="M65.75 49.79L65.75 49.84C65.75 50.2 65.72 50.57 65.67 50.95C65.35 53.2 64.15 55.45 62.3 57.31C60.44 59.16 58.18 60.36 55.94 60.68C53.88 60.97 52.09 60.48 50.91 59.3C49.72 58.11 49.23 56.32 49.53 54.27C49.85 52.02 51.04 49.76 52.9 47.91C54.75 46.05 57.01 44.86 59.26 44.54C59.65 44.48 60.03 44.45 60.39 44.45C61.97 44.45 63.32 44.96 64.29 45.92C65.24 46.87 65.75 48.22 65.75 49.79Z" />
	<path id="Layer" class="shp2" fill="#9b8ccc" d="M65.75 8.6L65.75 15.09L26.48 29.56L26.48 20.84C26.48 19.59 27.27 18.45 28.45 18.02L61.7 5.77C62.64 5.43 63.64 5.55 64.46 6.13C65.28 6.7 65.75 7.6 65.75 8.6Z" />
	<path id="Layer" class="shp1" fill="#94e7ef" d="M22.89 65.58L22.89 65.63C22.89 65.99 22.87 66.36 22.81 66.73C22.49 68.98 21.29 71.24 19.44 73.09C17.59 74.95 15.33 76.14 13.08 76.46C11.03 76.76 9.24 76.27 8.05 75.08C6.87 73.9 6.38 72.11 6.67 70.05C6.99 67.81 8.19 65.55 10.04 63.69C11.89 61.84 14.15 60.64 16.4 60.32C16.79 60.27 17.17 60.24 17.54 60.24C19.11 60.24 20.47 60.74 21.43 61.7C22.39 62.66 22.89 64.01 22.89 65.58Z" />
	<g id="Layer">
	</g>
	<path id="musikal " fill="#000000" d="M106.92 59.32C107.28 60.52 108.36 61.36 109.62 61.36L113.7 61.36C114.96 61.36 116.04 60.52 116.4 59.26L123.06 37.54L125.34 58.6C125.46 59.98 126.6 61 127.92 61L132.06 61C132.78 61 133.38 60.76 133.8 60.28C134.22 59.74 134.46 59.08 134.4 58.3L129.96 21.34C129.84 19.72 128.64 18.58 127.02 18.58L122.64 18.58C121.38 18.58 120.24 19.42 119.88 20.62L111.96 46.36L103.98 20.68C103.62 19.42 102.54 18.58 101.28 18.58L96.42 18.58C94.86 18.58 93.66 19.72 93.54 21.34L89.1 58.3C89.04 59.08 89.28 59.74 89.7 60.28C90.12 60.76 90.72 61 91.44 61L95.4 61C96.66 61 97.74 60.04 97.98 58.66L100.2 37.6ZM176.04 21.1C176.04 19.78 175.08 18.76 173.82 18.76L169.56 18.76C168.3 18.76 167.28 19.78 167.28 21.1L167.28 45.04C167.28 49.06 165.24 52.72 160.86 52.72C156.9 52.72 154.38 49.72 154.38 45.04L154.38 21.1C154.38 19.78 153.36 18.76 152.1 18.76L147.9 18.76C146.64 18.76 145.62 19.78 145.62 21.1L145.62 44.74C145.62 53.62 151.44 61.78 160.86 61.78C170.28 61.78 176.04 53.62 176.04 44.74ZM196.62 53.02C194.58 53.02 192.24 52.18 189.84 50.56L189.78 50.56C189.36 50.26 188.88 50.14 188.4 50.14C187.56 50.14 186.78 50.62 186.42 51.46L184.56 55C184.08 55.96 184.38 57.34 185.22 57.88C188.7 60.4 192.78 61.78 196.68 61.78C204.24 61.78 210.24 56.62 210.24 48.7C210.24 43.6 207.48 39.46 202.68 37.36C199.98 36.22 199.26 35.92 199.02 35.86C194.28 33.76 193.38 32.38 193.38 30.46C193.38 28.24 194.88 26.8 197.4 26.8C198.54 26.8 200.94 27.16 204.06 29.26L204.12 29.32C204.54 29.56 205.02 29.68 205.5 29.68C206.34 29.68 207.12 29.2 207.48 28.36L209.22 24.82C209.7 23.86 209.4 22.54 208.56 21.94C205.38 19.48 201.3 18.04 197.34 18.04C189.96 18.04 184.68 23.26 184.68 30.82C184.68 37.42 188.22 40.84 193.92 43.42L195.48 44.08C200.4 46.18 201.3 46.78 201.54 49.12C201.48 51.52 199.62 53.02 196.62 53.02ZM219.78 18.46C218.52 18.46 217.5 19.54 217.5 20.86L217.5 24.7C217.5 26.08 218.52 27.1 219.78 27.1L223.14 27.1L223.14 52.36L219.78 52.36C218.52 52.36 217.5 53.44 217.5 54.76L217.5 58.6C217.5 59.98 218.52 61 219.78 61L235.32 61C236.58 61 237.6 59.98 237.6 58.6L237.6 54.76C237.6 53.44 236.58 52.36 235.32 52.36L231.96 52.36L231.96 27.1L235.32 27.1C236.58 27.1 237.6 26.08 237.6 24.7L237.6 20.86C237.6 19.54 236.58 18.46 235.32 18.46ZM252.24 61C253.5 61 254.52 59.98 254.52 58.66L254.52 44.32L254.82 44.32L266.4 59.74C267 60.58 267.84 61 268.86 61L273.78 61.06C275.04 61.06 276 60.1 276 58.84C276 58.36 275.82 57.88 275.52 57.46L262.2 39.64L275.46 22.36C275.76 21.88 275.94 21.4 275.94 20.92C275.94 19.66 274.98 18.7 273.72 18.7L268.92 18.7C267.9 18.7 267 19.12 266.4 19.96L254.58 35.62L254.52 35.62L254.52 21.1C254.52 19.72 253.5 18.7 252.24 18.7L248.04 18.7C246.78 18.7 245.76 19.72 245.76 21.1L245.76 58.66C245.76 59.98 246.78 61 248.04 61ZM302.34 20.5C301.98 19.24 300.9 18.4 299.64 18.4L295.5 18.4C294.24 18.4 293.1 19.24 292.74 20.5L281.28 57.7C281.22 57.94 281.16 58.18 281.16 58.54C281.16 59.92 282.24 61 283.56 61L287.28 61C288.54 61 289.62 60.16 290.04 58.84L292.14 51.7L302.88 51.7L305.04 58.84C305.4 60.16 306.48 61 307.74 61L311.58 61C312.9 61 313.98 59.92 313.98 58.54C313.98 58.18 313.92 57.94 313.86 57.7ZM300.3 43L294.72 43L297.54 33.34ZM323.7 18.7C322.44 18.7 321.42 19.72 321.42 21.1L321.42 57.4C321.42 59.32 322.86 61 324.84 61L341.34 61C342.6 61 343.56 59.98 343.56 58.6L343.56 54.46C343.56 53.14 342.6 52.06 341.34 52.06L330.18 52.06L330.18 21.1C330.18 19.72 329.16 18.7 327.9 18.7Z" />
</svg>